# xmcd
#
# Track frame offsets: 
#        150
#        36417
#        53887
#        82137
#        111117
#        139520
#        163307
#        204950
#        274162
#
# Disc length: 3857 seconds
#
# Revision: 1
# Processed by: cddbd v1.5.2PL0 Copyright (c) Steve Scherf et al.
# Submitted via: ExactAudioCopy v0.99pb5
#
DISCID=810f0f09
DTITLE=Led Zeppelin - Melancholy Danish Pageboys Remake
DYEAR=1979
DGENRE=Rock
TTITLE0=The Song Remains The Same
TTITLE1=Celebration Day
TTITLE2=Black Dog
TTITLE3=Nobodys Fault But Mine
TTITLE4=Over The Hills And Far Away
TTITLE5=Misty Mountain Hop
TTITLE6=Since I've Been Loving You
TTITLE7=No Quarter
TTITLE8=Hotdog
EXTD=
EXTT0=
EXTT1=
EXTT2=
EXTT3=
EXTT4=
EXTT5=
EXTT6=
EXTT7=
EXTT8=
PLAYORDER=
